<?xml version="1.0" encoding="UTF-8" standalone="no"?>
<!-- Created with Inkscape (http://www.inkscape.org/) -->

<svg
   width="150"
   height="65"
   viewBox="0 0 39.687499 17.197916"
   version="1.1"
   id="svg434"
   inkscape:version="1.2.1 (9c6d41e410, 2022-07-14)"
   sodipodi:docname="OkoutLogo.svg"
   xmlns:inkscape="http://www.inkscape.org/namespaces/inkscape"
   xmlns:sodipodi="http://sodipodi.sourceforge.net/DTD/sodipodi-0.dtd"
   xmlns="http://www.w3.org/2000/svg"
   xmlns:svg="http://www.w3.org/2000/svg">
  <sodipodi:namedview
     id="namedview436"
     pagecolor="#ffffff"
     bordercolor="#cccccc"
     borderopacity="1"
     inkscape:showpageshadow="0"
     inkscape:pageopacity="1"
     inkscape:pagecheckerboard="0"
     inkscape:deskcolor="#d1d1d1"
     inkscape:document-units="mm"
     showgrid="false"
     inkscape:zoom="2.2303141"
     inkscape:cx="75.998266"
     inkscape:cy="45.060919"
     inkscape:window-width="1366"
     inkscape:window-height="706"
     inkscape:window-x="-8"
     inkscape:window-y="-8"
     inkscape:window-maximized="1"
     inkscape:current-layer="layer1" />
  <defs
     id="defs431" />
  <g
     inkscape:label="Layer 1"
     inkscape:groupmode="layer"
     id="layer1">
    <g
       transform="matrix(0.11520531,0,0,0.11520531,-106.56161,-164.9993)"
       id="g1829">
      <path
         d="m 1175.2351,1529.3717 c 0.21,0.835 0.1025,1.6163 -0.3125,2.3488 -0.42,0.7324 -1.045,1.2012 -1.88,1.4112 -3.4463,1.045 -6.425,1.8263 -8.93,2.3488 -2.4025,0.5225 -4.7025,0.8887 -6.8951,1.0987 -2.0899,0.21 -4.2324,0.3125 -6.4249,0.3125 -2.09,-0.1025 -4.5951,-0.2587 -7.52,-0.4687 -1.9875,5.1175 -4.4388,9.9212 -7.3638,14.4137 -5.5362,8.775 -11.9088,15.615 -19.1163,20.5275 -8.1487,5.3275 -16.9237,7.9888 -26.3224,7.9888 -8.4626,0 -16.1376,-2.0363 -23.0326,-6.1088 -6.895,-4.18 -12.7437,-10.2887 -17.5487,-18.335 -4.0725,-6.895 -7.2075,-14.8287 -9.4,-23.8137 -0.9412,-4.2825 -1.6737,-8.5638 -2.1912,-12.8463 -0.5225,-4.39 -0.7863,-8.8287 -0.7863,-13.32 0,-3.55 0.1563,-6.9975 0.4688,-10.3425 l -4.385,1.7238 c -5.225,1.9875 -10.2401,4.0237 -15.0438,6.1137 -4.805,1.9825 -9.0337,4.2275 -12.6913,6.7325 -3.6562,2.51 -6.5812,5.3275 -8.7737,8.4625 -2.1925,3.0325 -3.18375,6.635 -2.97375,10.81 0.1025,0.835 -0.16125,1.6213 -0.78625,2.3538 -0.625,0.625 -1.3575,0.9375 -2.1925,0.9375 -0.835,0.1074 -1.5675,-0.1563 -2.1925,-0.7813 -0.63,-0.63 -0.99625,-1.3575 -1.09875,-2.1975 -0.3125,-9.5012 4.2825,-17.5975 13.79005,-24.2812 4.0712,-2.8226 8.6662,-5.3275 13.7887,-7.52 5.22,-2.1976 10.4975,-4.3363 15.825,-6.4263 1.25,-0.5225 2.505,-0.9912 3.76,-1.4112 1.3575,-0.5225 2.6613,-1.0451 3.9163,-1.5675 1.2537,-8.0413 3.3925,-15.0925 6.425,-21.1513 2.8175,-5.43 6.1087,-9.7125 9.8687,-12.8475 4.4913,-3.345 9.2425,-5.0137 14.2575,-5.0137 2.715,0 5.015,0.625 6.895,1.8787 1.9863,1.1525 3.29,2.7688 3.915,4.8588 0.5225,1.2549 0.6788,2.925 0.4738,5.015 -0.1075,2.09 -0.9963,4.5412 -2.6663,7.3637 -2.7137,4.7013 -7.1525,9.2425 -13.315,13.6325 -0.84,0.7275 -1.8312,1.4063 -2.9787,2.0362 -1.255,5.5363 -2.0363,11.4888 -2.3525,17.8613 -0.2063,6.3713 0.16,12.8462 1.0975,19.4287 1.1475,8.1438 3.0812,15.4051 5.7962,21.7776 2.72,6.3712 5.9575,11.7525 9.7175,16.1375 3.8613,4.2825 8.0413,7.4162 12.5338,9.4037 4.595,1.9825 9.2962,2.6075 14.1012,1.88 4.805,-0.7325 9.5563,-2.8762 14.2575,-6.4262 4.805,-3.6563 9.3513,-8.93 13.6338,-15.825 1.1475,-1.7775 2.2462,-3.6563 3.29,-5.6388 1.045,-1.9875 2.0362,-4.0237 2.9737,-6.1137 -1.1475,-0.205 -2.245,-0.415 -3.29,-0.625 -1.045,-0.21 -2.1387,-0.415 -3.2862,-0.625 -6.5825,-1.5675 -12.7988,-4.1263 -18.6475,-7.6813 -2.6125,-1.67 -5.0688,-3.4462 -7.3638,-5.3263 -2.3,-1.9824 -4.4925,-4.1749 -6.5825,-6.5774 -1.9812,-2.4025 -3.8125,-4.9125 -5.4825,-7.5251 -1.67,-2.6062 -3.135,-5.375 -4.385,-8.2999 -2.51,-5.435 -4.2337,-11.1775 -5.1712,-17.2363 -0.84,-5.7475 -0.9963,-11.28 -0.4738,-16.6062 0.5225,-5.435 1.8313,-10.3425 3.9213,-14.7326 2.1925,-4.8037 5.01,-8.5099 8.4575,-11.1224 3.8662,-2.925 8.305,-4.385 13.32,-4.385 7.2075,0 13.6325,1.5137 19.2725,4.5412 5.64,3.0275 10.4437,7.52 14.4137,13.4763 3.4475,5.22 6.06,11.3825 7.8325,18.4862 1.675,6.5825 2.51,13.8438 2.51,21.7775 0,10.03 -1.3575,20.0587 -4.0775,30.0838 l -1.25,4.2325 c 4.0725,1.255 8.095,1.8262 12.065,1.7237 3.965,-0.1075 8.1988,-0.835 12.6913,-2.1925 0.8337,-0.21 1.615,-0.1075 2.3475,0.3125 0.835,0.415 1.3575,1.045 1.5675,1.88 z m -39.0138,-72.8563 c -4.2812,-6.48 -8.4613,-10.395 -12.5337,-11.7524 -3.97,-1.3575 -7.52,-0.835 -10.6538,1.5675 -3.0325,2.4025 -5.3275,6.3712 -6.895,11.9087 -1.5675,5.43 -1.9875,11.6988 -1.255,18.7988 0.42,4.5999 1.4113,9.2975 2.9787,14.1012 1.6701,4.7025 3.97,9.2438 6.895,13.6338 2.9238,4.2812 6.4738,8.2512 10.6538,11.9087 4.2825,3.6525 9.3462,6.6313 15.195,8.93 3.345,-10.5512 5.015,-21.3075 5.015,-32.28 0,-7.4112 -0.835,-14.2575 -2.505,-20.5225 -1.5675,-6.2687 -3.8675,-11.6987 -6.895,-16.2938 z m -71.445,16.7626 c 1.67,-1.4601 3.2863,-2.9788 4.8538,-4.5413 1.5674,-1.5662 2.8225,-3.0312 3.76,-4.3888 1.045,-1.3574 1.675,-2.5587 1.88,-3.6037 0.3175,-1.045 0.1075,-1.7237 -0.625,-2.0362 -1.1475,-0.5225 -2.1925,-0.3663 -3.1351,0.4687 -0.9375,0.835 -1.8262,2.0362 -2.6612,3.6038 -0.7325,1.5674 -1.465,3.345 -2.1925,5.3275 -0.63,1.8787 -1.255,3.6025 -1.88,5.17 z"
         style="fill:#ffd5d5;fill-opacity:1;fill-rule:nonzero;stroke:none;stroke-width:1.25"
         id="path874"
         inkscape:connector-curvature="0" />
      <path
         d="m 1035.8601,1482.9467 c 0.9187,-0.5087 1.8612,-1.1475 2.8325,-1.915 1.02,-0.7612 1.9875,-1.5525 2.905,-2.3675 0.9187,-0.8163 1.7337,-1.5825 2.4512,-2.295 0.7613,-0.7662 1.3475,-1.4312 1.7575,-1.9925 0.3075,-0.3562 0.7138,-0.5325 1.2263,-0.5325 0.8637,0 1.5525,0.3275 2.065,0.9913 0.5612,0.6162 0.84,1.275 0.84,1.9924 0,0.5076 -0.1025,0.9426 -0.3075,1.2988 -0.61,0.815 -1.4013,1.7338 -2.3688,2.7537 -0.9175,0.9675 -2.0162,1.9638 -3.29,2.9838 -1.2262,1.02 -2.5737,2.065 -4.0537,3.135 -1.4788,1.02 -3.0125,1.9925 -4.5938,2.91 -0.865,10.0488 -2.9837,18.8188 -6.3475,26.3188 -3.3162,7.4462 -7.5737,13.6662 -12.7788,18.6662 -5.1512,4.995 -11.065,8.745 -17.7487,11.245 -6.63125,2.4463 -13.69125,3.6725 -21.19125,3.6725 -4.0775,0 -8.20875,-0.435 -12.39375,-1.2988 -4.13,-0.8699 -8.11,-2.1924 -11.9325,-3.98 -3.82875,-1.8362 -7.3975,-4.1312 -10.71375,-6.8849 -3.315,-2.8075 -6.19625,-6.1226 -8.6425,-9.9463 -2.45125,-3.8763 -4.39,-8.2612 -5.815,-13.1587 -1.3775,-4.9463 -2.065,-10.4788 -2.065,-16.6013 0,-6.07 0.7125,-11.8075 2.1425,-17.2125 1.48,-5.4587 3.61875,-10.5075 6.42625,-15.1513 2.85625,-4.6924 6.3475,-8.8962 10.47875,-12.6224 4.13,-3.7738 8.90125,-7.0113 14.30625,-9.7163 0.41,-0.205 0.86875,-0.3025 1.3775,-0.3025 0.7175,0 1.37625,0.2538 1.99125,0.7613 0.61125,0.5125 0.91875,1.2012 0.91875,2.0662 0,0.5612 -0.18125,1.0975 -0.5375,1.6062 -0.3075,0.4588 -0.7375,0.8151 -1.29875,1.0738 -0.3075,0.1513 -1.27875,0.635 -2.91,1.45 -1.5825,0.7662 -3.49125,1.9675 -5.7375,3.5987 -2.1925,1.6313 -4.565,3.7213 -7.11375,6.2751 -2.5,2.4949 -4.82,5.5562 -6.96375,9.1787 -2.09,3.6188 -3.8475,7.8275 -5.2775,12.6225 -1.3775,4.795 -2.06625,10.2538 -2.06625,16.3725 0,5.61 0.58625,10.5563 1.75875,14.8437 1.225,4.2813 2.83125,8.0313 4.81875,11.2451 1.9925,3.2124 4.2625,5.9424 6.81125,8.1837 2.6025,2.2463 5.25375,4.1063 7.955,5.585 2.75375,1.48 5.4825,2.6525 8.1875,3.5213 2.705,0.8687 5.17625,1.5037 7.4225,1.9137 2.295,0.405 4.23375,0.6588 5.815,0.7612 1.5775,0.1025 2.6225,0.1563 3.135,0.1563 6.32375,0 12.36875,-0.995 18.13,-2.9825 5.76625,-1.9925 10.94255,-5.0488 15.53255,-9.185 4.5899,-4.18 8.4424,-9.4825 11.5525,-15.9125 3.1637,-6.4262 5.3025,-14.0775 6.4262,-22.95 -3.3162,1.48 -6.7825,2.6513 -10.4062,3.5213 -3.5688,0.815 -7.3188,1.22 -11.2451,1.22 -5.405,0 -10.6587,-0.6888 -15.7612,-2.065 -5.0975,-1.4263 -9.615,-3.545 -13.54,-6.3475 -3.92625,-2.8563 -7.09,-6.4013 -9.4875,-10.635 -2.3975,-4.2338 -3.59375,-9.18 -3.59375,-14.8438 0,-4.59 0.79125,-8.6962 2.3675,-12.315 1.63625,-3.6712 3.82875,-6.7863 6.5825,-9.335 2.75375,-2.6025 5.9425,-4.5662 9.56125,-5.8888 3.6225,-1.3775 7.42125,-2.0662 11.40125,-2.0662 3.26125,0 6.52755,0.3813 9.79495,1.1475 3.31,0.7625 6.4738,1.9638 9.4826,3.5938 3.0612,1.5825 5.8924,3.5987 8.4949,6.045 2.6513,2.4462 4.9463,5.3812 6.8851,8.7987 1.9875,3.4187 3.545,7.32 4.6637,11.705 1.1225,4.335 1.6838,9.2038 1.6838,14.6138 z m -5.9663,3.5938 c 0.1513,-1.9875 0.2288,-3.975 0.2288,-5.9675 0,-7.2413 -1.0688,-13.4375 -3.2125,-18.5888 -2.09,-5.1512 -4.8438,-9.36 -8.2613,-12.6225 -3.37,-3.2663 -7.1688,-5.6388 -11.4012,-7.1137 -4.2338,-1.5338 -8.46755,-2.2951 -12.70005,-2.2951 -3.2625,0 -6.34875,0.5326 -9.25875,1.6063 -2.85125,1.07 -5.38,2.6225 -7.5725,4.6637 -2.13875,2.0413 -3.8475,4.5651 -5.1225,7.5725 -1.225,2.9588 -1.84125,6.3525 -1.84125,10.1763 0,3.6713 0.7675,7.2162 2.3,10.635 1.5775,3.3688 3.90125,6.3762 6.95875,9.0275 3.06125,2.6025 6.86,4.6925 11.40125,6.275 4.59,1.5288 9.92125,2.295 15.99125,2.295 4.13,0 8.0562,-0.5125 11.7775,-1.5287 3.7738,-1.02 7.3475,-2.3975 10.7125,-4.135 z"
         style="fill:#ff0000;fill-opacity:1;fill-rule:nonzero;stroke:none;stroke-width:1.25"
         id="path876"
         inkscape:connector-curvature="0" />
      <path
         d="m 1066.9201,1537.4192 c 0.8687,1.9388 2.3,3.4912 4.2875,4.6675 1.9875,1.1188 4.2325,1.68 6.7325,1.68 0.7625,0 2.0125,-0.1025 3.745,-0.3025 1.7387,-0.2587 3.7262,-1.0213 5.9725,-2.295 2.295,-1.3287 4.7162,-3.3938 7.265,-6.2013 2.5487,-2.8024 5.025,-6.7575 7.4225,-11.8562 0.2537,-0.5613 0.61,-0.9713 1.0687,-1.225 0.4588,-0.3025 0.9725,-0.4588 1.5338,-0.4588 0.8637,0 1.5525,0.3076 2.065,0.9175 0.5612,0.615 0.84,1.275 0.84,1.9925 0,0.3025 -0.1025,0.7125 -0.3075,1.22 -1.7825,3.7263 -3.775,7.0663 -5.9663,10.0251 -2.1925,2.905 -4.5662,5.405 -7.115,7.4949 -2.5487,2.0413 -5.2287,3.5988 -8.0325,4.6675 -2.7537,1.1238 -5.585,1.685 -8.4912,1.685 -2.295,0 -4.4625,-0.3562 -6.5038,-1.0737 -1.9875,-0.7137 -3.725,-1.655 -5.205,-2.8275 -1.425,-1.225 -2.5725,-2.5775 -3.4425,-4.0575 -0.815,-1.5288 -1.22,-3.0863 -1.22,-4.6638 0,-0.2049 0.024,-0.4874 0.072,-0.8437 0.054,-0.3563 0.1813,-0.7375 0.3863,-1.1475 0.2537,-0.4588 0.5862,-0.865 0.9912,-1.2262 0.4588,-0.405 1.0738,-0.7375 1.8363,-0.9913 2.0937,-0.615 4.0037,-1.3525 5.7412,-2.2213 1.7825,-0.9175 3.3163,-1.9387 4.59,-3.0562 1.275,-1.1238 2.2663,-2.3488 2.9838,-3.6725 0.7125,-1.3762 1.0687,-2.8562 1.0687,-4.4387 0,-1.3763 -0.4587,-2.5 -1.3762,-3.3688 -0.9175,-0.8637 -2.0413,-1.2987 -3.365,-1.2987 -1.3763,0 -2.7288,0.4837 -4.0575,1.455 -1.3225,0.9175 -2.6263,2.1675 -3.9013,3.75 -1.225,1.5287 -2.3975,3.3099 -3.52,5.3512 -1.1187,1.9925 -2.1675,4.0825 -3.135,6.275 -0.9175,2.1925 -1.7337,4.385 -2.4462,6.5813 -0.7175,2.1387 -1.3038,4.1312 -1.7625,5.9675 -0.1513,0.5612 -0.3325,1.1712 -0.5325,1.8362 -0.1563,0.6638 -0.41,1.2738 -0.7663,1.835 -0.3562,0.6113 -0.7912,1.0938 -1.2987,1.4513 -0.5125,0.41 -1.1775,0.615 -1.9925,0.615 -0.7663,0 -1.5038,-0.3326 -2.2163,-0.9963 -0.7137,-0.61 -1.075,-1.685 -1.075,-3.2125 0,-0.3087 0,-1.48 0,-3.5212 0.054,-2.0413 0.1025,-4.6925 0.1563,-7.9538 0.049,-3.3162 0.1025,-7.09 0.1512,-11.3237 0.1025,-4.2863 0.1813,-8.7988 0.23,-13.54 0.054,-4.795 0.1263,-9.7163 0.2288,-14.7651 0.1037,-5.0487 0.1812,-9.9712 0.23,-14.7662 0.054,-4.795 0.1025,-9.3363 0.1512,-13.6175 0.1025,-4.3362 0.1813,-8.165 0.23,-11.48 0.054,-3.3638 0.078,-6.0938 0.078,-8.1837 0.054,-2.1438 0.079,-3.4175 0.079,-3.8225 0,-0.8213 0.3025,-1.48 0.9175,-1.9925 0.61,-0.5613 1.275,-0.84 1.9875,-0.84 0.815,0 1.5037,0.2787 2.065,0.84 0.5625,0.5125 0.845,1.2012 0.845,2.065 0,0.1025 -0.029,1.1237 -0.077,3.0612 0,1.885 -0.025,4.4388 -0.079,7.6525 -0.049,3.2125 -0.1262,6.9625 -0.2287,11.245 -0.05,4.2813 -0.1275,8.8475 -0.23,13.6963 -0.049,4.795 -0.1275,9.7412 -0.23,14.8387 -0.049,5.1025 -0.1263,10.0725 -0.2288,14.9213 -0.049,4.8437 -0.1025,9.4587 -0.1512,13.8475 -0.054,4.385 -0.1025,8.2625 -0.1513,11.6262 0.815,-2.6025 1.86,-5.3275 3.1338,-8.1837 1.275,-2.91 2.7787,-5.585 4.5125,-8.0363 1.7375,-2.4462 3.6712,-4.4637 5.815,-6.04 2.1925,-1.5825 4.6137,-2.3737 7.27,-2.3737 1.48,0 2.8575,0.2787 4.1312,0.84 1.275,0.5125 2.3688,1.25 3.2863,2.2212 0.9712,0.9188 1.7087,2.0125 2.2212,3.2863 0.5625,1.2799 0.84,2.6562 0.84,4.1312 0,2.3 -0.5075,4.4138 -1.5275,6.3525 -1.0212,1.885 -2.3737,3.5938 -4.0575,5.1275 -1.68,1.4788 -3.6187,2.7775 -5.8112,3.9013 -2.1438,1.1225 -4.36,2.04 -6.66,2.7537 z"
         style="fill:#ff0000;fill-opacity:1;fill-rule:nonzero;stroke:none;stroke-width:1.25"
         id="path878"
         inkscape:connector-curvature="0" />
      <path
         d="m 1137.6913,1538.4155 c -1.2787,0 -2.3975,-0.1025 -3.3687,-0.3075 -0.7625,1.5275 -1.68,2.9587 -2.7538,4.2812 -1.07,1.275 -2.32,2.3975 -3.75,3.37 -1.3775,0.9663 -2.93,1.7325 -4.6637,2.295 -1.7325,0.5613 -3.6225,0.8388 -5.6638,0.8388 -2.3975,0 -4.59,-0.4338 -6.5775,-1.2988 -1.9912,-0.815 -3.725,-1.9625 -5.205,-3.4425 -1.4787,-1.5325 -2.6262,-3.3438 -3.4425,-5.4337 -0.815,-2.1388 -1.22,-4.4875 -1.22,-7.0363 0,-3.2662 0.5863,-6.0937 1.7575,-8.4912 1.1725,-2.4513 2.525,-4.4625 4.0525,-6.045 1.5338,-1.6313 3.0613,-2.8325 4.59,-3.5988 1.5338,-0.815 2.6813,-1.22 3.4425,-1.22 0.8688,0 1.5088,0.2288 1.9138,0.6875 0.4587,0.4588 0.6887,1.07 0.6887,1.8363 0,0.8637 -0.2787,1.5287 -0.84,1.9875 -0.5125,0.41 -1.1712,0.815 -1.9925,1.225 -0.815,0.4062 -1.6787,0.9912 -2.5975,1.7587 -0.9175,0.7125 -1.7862,1.63 -2.6025,2.7538 -0.7662,1.1225 -1.4012,2.4512 -1.9137,3.9787 -0.5075,1.5288 -0.7613,3.2375 -0.7613,5.1275 0,1.68 0.2538,3.2613 0.7613,4.7413 0.5125,1.43 1.25,2.68 2.2212,3.75 0.9675,1.02 2.115,1.8362 3.4425,2.4462 1.3238,0.5613 2.8025,0.845 4.4388,0.845 2.905,0 5.3025,-0.665 7.1875,-1.9925 1.9387,-1.3775 3.4175,-3.11 4.4387,-5.2 -3.0075,-1.5825 -5.4837,-3.8287 -7.4225,-6.7337 -1.9375,-2.905 -2.905,-6.1713 -2.905,-9.79 0,-2.91 0.6888,-5.2838 2.065,-7.1188 1.4263,-1.8362 3.2913,-2.7537 5.5863,-2.7537 1.3775,0 2.6762,0.3312 3.9012,0.9949 1.2263,0.6651 2.295,1.7101 3.2138,3.1351 0.9662,1.4312 1.7325,3.2675 2.295,5.5087 0.5612,2.245 0.8387,4.9213 0.8387,8.0363 0,1.6312 -0.205,3.34 -0.61,5.1225 0.3075,0.054 0.61,0.078 0.9175,0.078 0.3088,0 0.64,0 0.9963,0 1.7337,0 3.2862,-0.205 4.6637,-0.61 1.3763,-0.41 2.6263,-1.02 3.75,-1.8363 1.1225,-0.815 2.1188,-1.865 2.9838,-3.1387 0.9175,-1.275 1.7862,-2.755 2.6025,-4.4338 0.1512,-0.3075 0.4825,-0.5912 0.995,-0.845 0.5087,-0.3025 1.0212,-0.4587 1.5287,-0.4587 0.6638,0 1.275,0.2825 1.8363,0.845 0.61,0.5075 0.9175,1.1962 0.9175,2.065 0,0.405 -0.1025,0.8637 -0.3075,1.3762 -0.2,0.46 -0.405,0.8888 -0.61,1.3 -0.8688,1.5275 -1.885,3.0075 -3.0613,4.4375 -1.1237,1.3775 -2.4712,2.5975 -4.0537,3.6725 -1.5275,1.02 -3.2663,1.8363 -5.205,2.4463 -1.9325,0.615 -4.1013,0.8937 -6.4988,0.845 z m -13.0862,-19.2825 c 0,0.9712 0.1275,1.9925 0.3862,3.0612 0.2538,1.07 0.635,2.1438 1.1475,3.2125 0.5613,1.0213 1.2213,2.0175 1.9875,2.9837 0.815,0.9175 1.7575,1.7088 2.8313,2.3738 0.1525,-1.075 0.23,-2.12 0.23,-3.14 0,-1.3775 -0.1025,-2.7787 -0.3075,-4.2037 -0.205,-1.4313 -0.5075,-2.73 -0.9175,-3.9063 -0.3575,-1.2212 -0.8163,-2.1925 -1.3775,-2.9062 -0.5613,-0.7663 -1.225,-1.1475 -1.9875,-1.1475 -0.3075,0 -0.7175,0.23 -1.225,0.6887 -0.5088,0.4588 -0.7675,1.455 -0.7675,2.9838 z"
         style="fill:#ff0000;fill-opacity:1;fill-rule:nonzero;stroke:none;stroke-width:1.25"
         id="path880"
         inkscape:connector-curvature="0" />
      <path
         d="m 1177.3938,1538.2592 c -1.7825,2.91 -3.8725,5.205 -6.27,6.8838 -2.3487,1.6849 -4.7212,2.525 -7.1137,2.525 -1.9388,0 -3.6775,-0.3563 -5.205,-1.0701 -1.5288,-0.7124 -2.8563,-1.7087 -3.98,-2.9824 -1.1175,-1.3288 -1.9875,-2.905 -2.5975,-4.7413 -0.5613,-1.8362 -0.845,-3.9062 -0.845,-6.2012 0,-3.57 0.3325,-6.7288 0.9962,-9.4826 0.7125,-2.7537 1.48,-5.0537 2.295,-6.8899 0.815,-1.885 1.5825,-3.315 2.295,-4.2825 0.7125,-0.9663 1.07,-1.455 1.07,-1.455 0.2588,-0.3025 0.5613,-0.5313 0.9175,-0.6875 0.41,-0.1526 0.82,-0.23 1.225,-0.23 0.8163,0 1.48,0.3074 1.9875,0.9175 0.5613,0.5625 0.845,1.2262 0.845,1.9924 0,0.3025 -0.079,0.6101 -0.23,0.9175 -0.1025,0.3038 -0.2287,0.6113 -0.385,0.9188 -0.2537,0.4588 -0.66,1.1713 -1.2212,2.1388 -0.5613,0.9175 -1.1475,2.1437 -1.7625,3.6762 -0.61,1.5288 -1.1475,3.34 -1.6063,5.43 -0.4587,2.0413 -0.6887,4.385 -0.6887,7.0363 0,3.0125 0.5862,5.3075 1.7625,6.89 1.2212,1.5275 2.93,2.295 5.1275,2.295 0.9175,0 1.9625,-0.2838 3.135,-0.8451 1.225,-0.6112 2.3975,-1.5287 3.52,-2.7537 1.1725,-1.2212 2.1925,-2.7787 3.0562,-4.6687 0.87,-1.885 1.4313,-4.1013 1.685,-6.655 l 1.1475,-13.1588 c 0.1025,-0.7625 0.435,-1.4012 0.9963,-1.91 0.5612,-0.5125 1.22,-0.7662 1.9875,-0.7662 0.8687,0 1.5575,0.3324 2.065,0.9962 0.5125,0.61 0.7662,1.3238 0.7662,2.1388 l -0.9962,12.7 c -0.1025,1.0737 -0.072,2.4749 0.079,4.2087 0.205,1.7338 0.5863,3.4425 1.1475,5.1275 0.5613,1.6838 1.4012,3.135 2.5238,4.36 1.1237,1.1725 2.6037,1.7575 4.4387,1.7575 1.3237,0 2.6275,-0.3313 3.9013,-0.9912 1.2749,-0.7176 2.5,-1.6351 3.6724,-2.7538 1.1713,-1.1225 2.2413,-2.3725 3.2126,-3.75 1.0212,-1.43 1.9387,-2.8562 2.7537,-4.2862 0.87,-1.4263 1.6062,-2.7788 2.2175,-4.0538 0.615,-1.3275 1.1225,-2.4462 1.5325,-3.3637 0.2537,-0.5613 0.6112,-0.9963 1.07,-1.3038 0.4587,-0.3025 0.9712,-0.4587 1.5275,-0.4587 0.9188,0 1.6363,0.3075 2.1437,0.9175 0.5125,0.615 0.7675,1.2749 0.7675,1.9925 0,0.405 -0.079,0.7912 -0.23,1.1475 -0.205,0.4049 -0.615,1.2737 -1.2262,2.5975 -0.5613,1.275 -1.3225,2.7537 -2.2938,4.4387 -0.9187,1.63 -2.0412,3.3687 -3.365,5.205 -1.3275,1.8363 -2.8075,3.545 -4.4387,5.1212 -1.63,1.5338 -3.4175,2.8088 -5.3563,3.8288 -1.885,0.9663 -3.925,1.45 -6.1175,1.45 -3.0125,0 -5.5087,-0.84 -7.5,-2.5237 -1.9874,-1.7338 -3.4675,-4.18 -4.4387,-7.3438 z"
         style="fill:#ff0000;fill-opacity:1;fill-rule:nonzero;stroke:none;stroke-width:1.25"
         id="path882"
         inkscape:connector-curvature="0" />
      <path
         d="m 1268.7413,1470.2454 c 0,0.8163 -0.2787,1.4801 -0.84,1.9926 -0.5612,0.4587 -1.25,0.6887 -2.065,0.6887 h -38.7887 v 0.84 c 0,3.11 -0.23,6.425 -0.6888,9.9462 -0.4587,3.5151 -1.0937,7.0363 -1.9137,10.5563 -0.7625,3.4675 -1.6563,6.86 -2.6763,10.1763 -0.9675,3.3149 -1.9875,6.3762 -3.0612,9.18 -1.0213,2.8074 -2.0413,5.2537 -3.0575,7.3437 -1.02,2.04 -1.9375,3.5688 -2.7538,4.5887 0.66,2.3488 1.45,4.5413 2.3688,6.5825 0.9175,1.9875 1.9387,3.75 3.0612,5.2788 1.1713,1.4787 2.4213,2.6512 3.75,3.52 1.3238,0.865 2.7538,1.2987 4.2825,1.2987 1.7862,0 3.545,-0.7374 5.2775,-2.2162 1.7875,-1.5338 3.4188,-3.3163 4.8975,-5.3563 1.5287,-2.09 2.8575,-4.185 3.98,-6.275 1.1713,-2.1437 2.0113,-3.8524 2.525,-5.1262 0.5075,-1.2213 1.4013,-1.8363 2.675,-1.8363 0.8688,0 1.5575,0.3075 2.065,0.9175 0.5625,0.615 0.845,1.275 0.845,1.9925 0,0.3563 -0.078,0.7125 -0.2288,1.0688 -0.1562,0.3575 -0.5375,1.1725 -1.1474,2.4462 -0.5625,1.275 -1.3288,2.755 -2.295,4.4388 -0.9188,1.685 -2.0175,3.4675 -3.2913,5.3562 -1.2262,1.8363 -2.6275,3.5213 -4.2087,5.0488 -1.5288,1.5288 -3.1888,2.8037 -4.9713,3.8237 -1.7863,1.02 -3.6713,1.5338 -5.6638,1.5338 -3.5199,0 -6.6799,-1.1475 -9.4874,-3.4425 -2.8026,-2.295 -5.2001,-5.5088 -7.1925,-9.6438 -1.9338,-4.1312 -3.4125,-9.0237 -4.4338,-14.6875 -1.02,-5.66 -1.5325,-11.8562 -1.5325,-18.5887 0,-1.685 0.029,-3.6475 0.078,-5.8938 0.049,-2.295 0.1512,-4.6925 0.3075,-7.1875 0.1512,-2.5537 0.3812,-5.1512 0.6888,-7.8075 0.3024,-2.7 0.7124,-5.3275 1.2212,-7.8762 H 1179 c -0.815,0 -1.5037,-0.23 -2.065,-0.6888 -0.5575,-0.5125 -0.8399,-1.1762 -0.8399,-1.9925 0,-0.815 0.2824,-1.455 0.8399,-1.9137 0.5613,-0.5075 1.25,-0.7613 2.065,-0.7613 h 28.77 c 0.5075,-1.8362 1.0938,-3.5212 1.7575,-5.0487 0.7125,-1.5338 1.5038,-2.8563 2.3725,-3.98 0.9188,-1.1225 1.915,-1.9875 2.9838,-2.6025 1.1237,-0.6638 2.3437,-0.9963 3.6725,-0.9963 1.2737,0 2.3725,0.3325 3.29,0.9963 0.9675,0.615 1.7825,1.48 2.4462,2.6025 0.665,1.1237 1.1725,2.4462 1.5288,3.98 0.41,1.5275 0.7175,3.2125 0.9175,5.0487 h 39.0975 c 0.815,0 1.5037,0.2538 2.065,0.7613 0.5612,0.4587 0.84,1.0987 0.84,1.9137 z m -57.6075,47.6613 c 1.5338,-3.3637 2.91,-6.9862 4.1313,-10.8587 1.2737,-3.9313 2.3487,-7.8813 3.2125,-11.86 0.9175,-3.98 1.6062,-7.8813 2.065,-11.7051 0.5137,-3.8274 0.7675,-7.3437 0.7675,-10.5562 h -9.0288 c -0.7125,3.1588 -1.2987,7.085 -1.7575,11.7775 -0.41,4.6437 -0.615,10.3025 -0.615,16.9875 0,3.72 0.1025,6.86 0.3075,9.4088 0.205,2.5 0.5125,4.7699 0.9175,6.8062 z m 7.1138,-57.2212 c -0.4588,0 -1.1175,0.5074 -1.9863,1.5287 -0.87,0.9662 -1.7337,2.7538 -2.6025,5.3563 h 7.3438 c -0.255,-2.1438 -0.635,-3.8288 -1.1475,-5.0488 -0.46,-1.2262 -0.9913,-1.8362 -1.6075,-1.8362 z m -5.8875,62.735 v 0.072 z"
         style="fill:#ff0000;fill-opacity:1;fill-rule:nonzero;stroke:none;stroke-width:1.25"
         id="path884"
         inkscape:connector-curvature="0" />
    </g>
  </g>
</svg>
